ffmpeg version N-82167-g5e96558 Copyright (c) 2000-2016 the FFmpeg developers
  built with gcc 5.4.0 (Ubuntu 5.4.0-6ubuntu1~16.04.2) 20160609
  configuration: --prefix=/root/ffmpeg_build --pkg-config-flags=--static --extra-cflags=-I/root/ffmpeg_build/include --extra-ldflags=-L/root/ffmpeg_build/lib --bindir=/root/bin --enable-gpl --enable-libass --enable-libfdk-aac --enable-libfreetype --enable-libmp3lame --enable-libopus --enable-libtheora --enable-libvorbis --enable-libx264 --enable-libx265 --enable-nonfree
  libavutil      55. 35.100 / 55. 35.100
  libavcodec     57. 65.100 / 57. 65.100
  libavformat    57. 57.100 / 57. 57.100
  libavdevice    57.  2.100 / 57.  2.100
  libavfilter     6. 66.100 /  6. 66.100
  libswscale      4.  3.100 /  4.  3.100
  libswresample   2.  4.100 /  2.  4.100
  libpostproc    54.  2.100 / 54.  2.100
Input #0, matroska,webm, from '/media/yubikiri/bot/queue/3AnimePahe_Detective_Conan_-_028_720p_Fansub.mkv':
  Metadata:
    title           : 3|Text||0|0
    ENCODER         : Lavf57.57.100
  Duration: 00:24:28.14, start: 0.000000, bitrate: 994 kb/s
    Stream #0:0: Video: mpeg4 (Simple Profile), yuv420p, 640x480 [SAR 1:1 DAR 4:3], 23.98 fps, 23.98 tbr, 1k tbn, 23.98 tbc (default)
    Metadata:
      DURATION        : 00:24:28.135000000
    Stream #0:1: Audio: mp3, 48000 Hz, stereo, s16p, 128 kb/s (default)
    Metadata:
      DURATION        : 00:24:28.104000000
[libx264 @ 0x2b24560] using SAR=1/1
[libx264 @ 0x2b24560] using cpu capabilities: MMX2 SSE2Fast SSSE3 SSE4.2 AVX FMA3 AVX2 LZCNT BMI2
[libx264 @ 0x2b24560] profile High, level 3.1
[libx264 @ 0x2b24560] 264 - core 148 r2643 5c65704 - H.264/MPEG-4 AVC codec - Copyleft 2003-2015 - http://www.videolan.org/x264.html - options: cabac=1 ref=8 deblock=1:1:1 analyse=0x3:0x133 me=umh subme=7 psy=1 psy_rd=0.00:0.00 mixed_ref=1 me_range=8 chroma_me=1 trellis=0 8x8dct=1 cqm=0 deadzone=21,11 fast_pskip=1 chroma_qp_offset=0 threads=8 lookahead_threads=2 sliced_threads=0 nr=0 decimate=1 interlaced=0 bluray_compat=0 constrained_intra=0 bframes=3 b_pyramid=2 b_adapt=2 b_bias=0 direct=1 weightb=1 open_gop=0 weightp=2 keyint=240 keyint_min=24 scenecut=40 intra_refresh=0 rc_lookahead=60 rc=crf mbtree=1 crf=27.0 qcomp=0.60 qpmin=0 qpmax=69 qpstep=4 ip_ratio=1.40 aq=1:1.00
[libfdk_aac @ 0x2aaaec0] Note, the VBR setting is unsupported and only works with some parameter combinations
Output #0, mp4, to '/media/yubikiri/bot/queue/3AnimePahe_Detective_Conan_-_028_720p_Fansub.mkv_encoded.mp4':
  Metadata:
    encoder         : Lavf57.57.100
    Stream #0:0: Video: h264 (libx264) ([33][0][0][0] / 0x0021), yuv420p, 640x480 [SAR 1:1 DAR 4:3], q=-1--1, 23.98 fps, 11988 tbn, 23.98 tbc (default)
    Metadata:
      encoder         : Lavc57.65.100 libx264
    Side data:
      cpb: bitrate max/min/avg: 0/0/0 buffer size: 0 vbv_delay: -1
    Stream #0:1: Audio: aac (libfdk_aac) (HE-AACv2) ([64][0][0][0] / 0x0040), 48000 Hz, stereo, s16, 48 kb/s (default)
    Metadata:
      encoder         : Lavc57.65.100 libfdk_aac
Stream mapping:
  Stream #0:0 -> #0:0 (mpeg4 (native) -> h264 (libx264))
  Stream #0:1 -> #0:1 (mp3 (native) -> aac (libfdk_aac))
Press [q] to stop, [?] for help
frame=  139 fps=0.0 q=32.0 size=     133kB time=00:00:05.99 bitrate= 182.2kbits/s dup=1 drop=0 speed=  12x    frame=  270 fps=269 q=32.0 size=     272kB time=00:00:11.45 bitrate= 194.3kbits/s dup=1 drop=0 speed=11.4x    frame=  360 fps=240 q=32.0 size=     484kB time=00:00:15.21 bitrate= 260.8kbits/s dup=1 drop=0 speed=10.1x    frame=  450 fps=224 q=32.0 size=     651kB time=00:00:18.92 bitrate= 281.7kbits/s dup=1 drop=0 speed=9.41x    frame=  549 fps=219 q=32.0 size=     849kB time=00:00:23.06 bitrate= 301.5kbits/s dup=1 drop=0 speed=9.18x    frame=  610 fps=203 q=32.0 size=    1041kB time=00:00:25.62 bitrate= 332.7kbits/s dup=1 drop=0 speed=8.51x    frame=  685 fps=195 q=32.0 size=    1224kB time=00:00:28.73 bitrate= 349.0kbits/s dup=1 drop=0 speed=8.18x    frame=  783 fps=195 q=32.0 size=    1405kB time=00:00:32.79 bitrate= 351.0kbits/s dup=1 drop=0 speed=8.16x    frame=  890 fps=197 q=32.0 size=    1572kB time=00:00:37.27 bitrate= 345.5kbits/s dup=1 drop=0 speed=8.25x    frame=  975 fps=194 q=32.0 size=    1748kB time=00:00:40.81 bitrate= 350.9kbits/s dup=1 drop=0 speed=8.13x    frame= 1052 fps=191 q=32.0 size=    1912kB time=00:00:44.05 bitrate= 355.6kbits/s dup=1 drop=0 speed=7.98x    frame= 1137 fps=188 q=32.0 size=    2135kB time=00:00:47.59 bitrate= 367.4kbits/s dup=1 drop=0 speed=7.88x    frame= 1222 fps=187 q=32.0 size=    2293kB time=00:00:51.13 bitrate= 367.3kbits/s dup=1 drop=0 speed=7.81x    frame= 1308 fps=186 q=32.0 size=    2541kB time=00:00:54.72 bitrate= 380.4kbits/s dup=1 drop=0 speed=7.77x    frame= 1380 fps=183 q=32.0 size=    2754kB time=00:00:57.70 bitrate= 391.0kbits/s dup=1 drop=0 speed=7.65x    frame= 1473 fps=183 q=32.0 size=    2999kB time=00:01:01.59 bitrate= 398.9kbits/s dup=1 drop=0 speed=7.64x    frame= 1568 fps=183 q=32.0 size=    3181kB time=00:01:05.55 bitrate= 397.5kbits/s dup=1 drop=0 speed=7.66x    frame= 1679 fps=185 q=32.0 size=    3356kB time=00:01:10.16 bitrate= 391.9kbits/s dup=1 drop=0 speed=7.74x    frame= 1745 fps=182 q=32.0 size=    3530kB time=00:01:12.93 bitrate= 396.4kbits/s dup=1 drop=0 speed=7.63x    frame= 1811 fps=180 q=32.0 size=    3706kB time=00:01:15.71 bitrate= 401.0kbits/s dup=1 drop=0 speed=7.52x    frame= 1861 fps=176 q=32.0 size=    3836kB time=00:01:17.76 bitrate= 404.1kbits/s dup=1 drop=0 speed=7.36x    frame= 1931 fps=174 q=32.0 size=    4025kB time=00:01:20.70 bitrate= 408.6kbits/s dup=1 drop=0 speed=7.29x    frame= 2018 fps=174 q=32.0 size=    4221kB time=00:01:24.33 bitrate= 410.0kbits/s dup=1 drop=0 speed=7.29x    frame= 2111 fps=175 q=32.0 size=    4347kB time=00:01:28.21 bitrate= 403.7kbits/s dup=1 drop=0 speed=7.31x    frame= 2272 fps=181 q=32.0 size=    4511kB time=00:01:34.91 bitrate= 389.4kbits/s dup=1 drop=0 speed=7.55x    frame= 2357 fps=180 q=32.0 size=    4713kB time=00:01:38.45 bitrate= 392.2kbits/s dup=1 drop=0 speed=7.53x    frame= 2460 fps=181 q=32.0 size=    4901kB time=00:01:42.76 bitrate= 390.7kbits/s dup=1 drop=0 speed=7.57x    frame= 2550 fps=181 q=32.0 size=    5072kB time=00:01:46.51 bitrate= 390.1kbits/s dup=1 drop=0 speed=7.56x    frame= 2670 fps=183 q=32.0 size=    5234kB time=00:01:51.51 bitrate= 384.5kbits/s dup=1 drop=0 speed=7.62x    frame= 2771 fps=183 q=32.0 size=    5414kB time=00:01:55.73 bitrate= 383.2kbits/s dup=1 drop=0 speed=7.65x    frame= 2862 fps=183 q=32.0 size=    5517kB time=00:01:59.48 bitrate= 378.2kbits/s dup=1 drop=0 speed=7.64x    frame= 2957 fps=183 q=32.0 size=    5722kB time=00:02:03.49 bitrate= 379.5kbits/s dup=1 drop=0 speed=7.65x    frame= 3047 fps=183 q=32.0 size=    5875kB time=00:02:07.25 bitrate= 378.2kbits/s dup=1 drop=0 speed=7.65x    frame= 3100 fps=181 q=32.0 size=    6041kB time=00:02:09.47 bitrate= 382.2kbits/s dup=1 drop=0 speed=7.55x    frame= 3169 fps=179 q=32.0 size=    6162kB time=00:02:12.33 bitrate= 381.4kbits/s dup=1 drop=0 speed=7.49x    frame= 3231 fps=178 q=32.0 size=    6241kB time=00:02:14.93 bitrate= 378.9kbits/s dup=1 drop=0 speed=7.43x    frame= 3280 fps=176 q=32.0 size=    6326kB time=00:02:16.98 bitrate= 378.3kbits/s dup=1 drop=0 speed=7.34x    frame= 3338 fps=174 q=32.0 size=    6438kB time=00:02:19.37 bitrate= 378.4kbits/s dup=1 drop=0 speed=7.27x    frame= 3398 fps=173 q=32.0 size=    6510kB time=00:02:21.88 bitrate= 375.9kbits/s dup=1 drop=0 speed=7.21x    frame= 3500 fps=173 q=32.0 size=    6628kB time=00:02:26.15 bitrate= 371.5kbits/s dup=1 drop=0 speed=7.24x    frame= 3616 fps=175 q=32.0 size=    6713kB time=00:02:30.97 bitrate= 364.2kbits/s dup=1 drop=0 speed= 7.3x    frame= 3706 fps=175 q=32.0 size=    6779kB time=00:02:34.73 bitrate= 358.9kbits/s dup=1 drop=0 speed= 7.3x    frame= 3764 fps=174 q=32.0 size=    6881kB time=00:02:37.16 bitrate= 358.6kbits/s dup=1 drop=0 speed=7.25x    frame= 3856 fps=174 q=32.0 size=    6993kB time=00:02:41.00 bitrate= 355.8kbits/s dup=1 drop=0 speed=7.26x    frame= 3959 fps=175 q=32.0 size=    7079kB time=00:02:45.27 bitrate= 350.9kbits/s dup=1 drop=0 speed=7.28x    frame= 4025 fps=174 q=32.0 size=    7161kB time=00:02:48.04 bitrate= 349.1kbits/s dup=1 drop=0 speed=7.25x    frame= 4100 fps=173 q=32.0 size=    7249kB time=00:02:51.15 bitrate= 347.0kbits/s dup=1 drop=0 speed=7.22x    frame= 4160 fps=172 q=32.0 size=    7381kB time=00:02:53.67 bitrate= 348.1kbits/s dup=1 drop=0 speed=7.17x    frame= 4212 fps=170 q=32.0 size=    7522kB time=00:02:55.80 bitrate= 350.5kbits/s dup=1 drop=0 speed=7.09x    frame= 4282 fps=169 q=32.0 size=    7639kB time=00:02:58.75 bitrate= 350.1kbits/s dup=1 drop=0 speed=7.06x    frame= 4376 fps=170 q=32.0 size=    7731kB time=00:03:02.63 bitrate= 346.8kbits/s dup=1 drop=0 speed=7.08x    frame= 4478 fps=170 q=32.0 size=    7824kB time=00:03:06.94 bitrate= 342.8kbits/s dup=1 drop=0 speed=7.11x    frame= 4555 fps=170 q=32.0 size=    7909kB time=00:03:10.14 bitrate= 340.7kbits/s dup=1 drop=0 speed=7.09x    frame= 4610 fps=168 q=32.0 size=    7993kB time=00:03:12.44 bitrate= 340.2kbits/s dup=1 drop=0 speed=7.02x    frame= 4682 fps=168 q=32.0 size=    8111kB time=00:03:15.43 bitrate= 340.0kbits/s dup=1 drop=0 speed=   7x    frame= 4783 fps=168 q=32.0 size=    8181kB time=00:03:19.65 bitrate= 335.7kbits/s dup=1 drop=0 speed=7.02x    frame= 4842 fps=167 q=32.0 size=    8249kB time=00:03:22.09 bitrate= 334.4kbits/s dup=1 drop=0 speed=6.99x    frame= 4894 fps=166 q=32.0 size=    8317kB time=00:03:24.26 bitrate= 333.5kbits/s dup=1 drop=0 speed=6.94x    frame= 4972 fps=166 q=32.0 size=    8430kB time=00:03:27.51 bitrate= 332.8kbits/s dup=1 drop=0 speed=6.93x    frame= 5071 fps=167 q=32.0 size=    8509kB time=00:03:31.64 bitrate= 329.4kbits/s dup=1 drop=0 speed=6.95x    frame= 5192 fps=168 q=32.0 size=    8601kB time=00:03:36.72 bitrate= 325.1kbits/s dup=1 drop=0 speed=   7x    frame= 5281 fps=168 q=32.0 size=    8679kB time=00:03:40.39 bitrate= 322.6kbits/s dup=1 drop=0 speed=7.01x    frame= 5335 fps=167 q=32.0 size=    8777kB time=00:03:42.65 bitrate= 322.9kbits/s dup=1 drop=0 speed=6.97x    frame= 5385 fps=166 q=32.0 size=    8847kB time=00:03:44.74 bitrate= 322.5kbits/s dup=1 drop=0 speed=6.92x    frame= 5436 fps=165 q=32.0 size=    8940kB time=00:03:46.88 bitrate= 322.8kbits/s dup=1 drop=0 speed=6.88x    frame= 5474 fps=164 q=32.0 size=    9030kB time=00:03:48.45 bitrate= 323.8kbits/s dup=1 drop=0 speed=6.83x    frame= 5546 fps=163 q=32.0 size=    9151kB time=00:03:51.44 bitrate= 323.9kbits/s dup=1 drop=0 speed=6.81x    frame= 5641 fps=164 q=32.0 size=    9253kB time=00:03:55.41 bitrate= 322.0kbits/s dup=1 drop=0 speed=6.83x    frame= 5746 fps=164 q=32.0 size=    9328kB time=00:03:59.80 bitrate= 318.7kbits/s dup=1 drop=0 speed=6.86x    frame= 5869 fps=165 q=32.0 size=    9450kB time=00:04:04.92 bitrate= 316.1kbits/s dup=1 drop=0 speed= 6.9x    frame= 5950 fps=165 q=32.0 size=    9535kB time=00:04:08.34 bitrate= 314.5kbits/s dup=1 drop=0 speed= 6.9x    frame= 5998 fps=164 q=32.0 size=    9621kB time=00:04:10.30 bitrate= 314.9kbits/s dup=1 drop=0 speed=6.86x    frame= 6056 fps=164 q=32.0 size=    9725kB time=00:04:12.73 bitrate= 315.2kbits/s dup=1 drop=0 speed=6.83x    frame= 6142 fps=164 q=32.0 size=    9806kB time=00:04:16.32 bitrate= 313.4kbits/s dup=1 drop=0 speed=6.84x    frame= 6226 fps=164 q=32.0 size=    9918kB time=00:04:19.81 bitrate= 312.7kbits/s dup=1 drop=0 speed=6.84x    frame= 6310 fps=164 q=32.0 size=   10046kB time=00:04:23.31 bitrate= 312.5kbits/s dup=1 drop=0 speed=6.84x    frame= 6392 fps=164 q=32.0 size=   10140kB time=00:04:26.77 bitrate= 311.4kbits/s dup=1 drop=0 speed=6.84x    frame= 6466 fps=164 q=32.0 size=   10236kB time=00:04:29.84 bitrate= 310.7kbits/s dup=1 drop=0 speed=6.83x    frame= 6544 fps=164 q=32.0 size=   10316kB time=00:04:33.08 bitrate= 309.5kbits/s dup=1 drop=0 speed=6.83x    frame= 6619 fps=163 q=32.0 size=   10436kB time=00:04:36.20 bitrate= 309.5kbits/s dup=1 drop=0 speed=6.82x    frame= 6696 fps=163 q=29.0 size=   10507kB time=00:04:39.44 bitrate= 308.0kbits/s dup=1 drop=0 speed=6.81x    frame= 6777 fps=163 q=32.0 size=   10639kB time=00:04:42.81 bitrate= 308.2kbits/s dup=1 drop=0 speed=6.81x    frame= 6838 fps=163 q=32.0 size=   10740kB time=00:04:45.37 bitrate= 308.3kbits/s dup=1 drop=0 speed=6.79x    frame= 6905 fps=162 q=32.0 size=   10846kB time=00:04:48.15 bitrate= 308.4kbits/s dup=1 drop=0 speed=6.77x    frame= 6969 fps=162 q=32.0 size=   10945kB time=00:04:50.83 bitrate= 308.3kbits/s dup=1 drop=0 speed=6.76x    frame= 7020 fps=161 q=32.0 size=   11031kB time=00:04:52.92 bitrate= 308.5kbits/s dup=1 drop=0 speed=6.73x    frame= 7076 fps=161 q=32.0 size=   11119kB time=00:04:55.27 bitrate= 308.5kbits/s dup=1 drop=0 speed= 6.7x    frame= 7164 fps=161 q=32.0 size=   11235kB time=00:04:58.94 bitrate= 307.9kbits/s dup=1 drop=0 speed=6.71x    frame= 7266 fps=161 q=32.0 size=   11319kB time=00:05:03.21 bitrate= 305.8kbits/s dup=1 drop=0 speed=6.73x    frame= 7357 fps=161 q=32.0 size=   11435kB time=00:05:07.00 bitrate= 305.1kbits/s dup=1 drop=0 speed=6.74x    frame= 7426 fps=161 q=32.0 size=   11537kB time=00:05:09.86 bitrate= 305.0kbits/s dup=1 drop=0 speed=6.73x    frame= 7505 fps=161 q=32.0 size=   11651kB time=00:05:13.15 bitrate= 304.8kbits/s dup=1 drop=0 speed=6.72x    frame= 7610 fps=162 q=32.0 size=   11757kB time=00:05:17.54 bitrate= 303.3kbits/s dup=1 drop=0 speed=6.75x    frame= 7719 fps=162 q=32.0 size=   11833kB time=00:05:22.11 bitrate= 300.9kbits/s dup=1 drop=0 speed=6.77x    frame= 7819 fps=163 q=32.0 size=   11957kB time=00:05:26.29 bitrate= 300.2kbits/s dup=1 drop=0 speed=6.78x    frame= 7889 fps=162 q=32.0 size=   12085kB time=00:05:29.19 bitrate= 300.7kbits/s dup=1 drop=0 speed=6.77x    frame= 7972 fps=162 q=32.0 size=   12186kB time=00:05:32.65 bitrate= 300.1kbits/s dup=1 drop=0 speed=6.78x    frame= 8080 fps=163 q=32.0 size=   12301kB time=00:05:37.13 bitrate= 298.9kbits/s dup=1 drop=0 speed= 6.8x    frame= 8187 fps=163 q=32.0 size=   12382kB time=00:05:41.61 bitrate= 296.9kbits/s dup=1 drop=0 speed=6.82x    frame= 8287 fps=164 q=32.0 size=   12494kB time=00:05:45.83 bitrate= 295.9kbits/s dup=1 drop=0 speed=6.83x    frame= 8403 fps=164 q=32.0 size=   12573kB time=00:05:50.65 bitrate= 293.7kbits/s dup=1 drop=0 speed=6.86x    frame= 8524 fps=165 q=32.0 size=   12681kB time=00:05:55.69 bitrate= 292.1kbits/s dup=1 drop=0 speed=6.89x    frame= 8639 fps=166 q=32.0 size=   12752kB time=00:06:00.47 bitrate= 289.8kbits/s dup=1 drop=0 speed=6.92x    frame= 8712 fps=166 q=32.0 size=   12860kB time=00:06:03.54 bitrate= 289.8kbits/s dup=1 drop=0 speed=6.91x    frame= 8833 fps=166 q=32.0 size=   12961kB time=00:06:08.57 bitrate= 288.1kbits/s dup=1 drop=0 speed=6.94x    frame= 8952 fps=167 q=32.0 size=   13061kB time=00:06:13.52 bitrate= 286.4kbits/s dup=1 drop=0 speed=6.97x    frame= 9035 fps=167 q=32.0 size=   13145kB time=00:06:16.98 bitrate= 285.7kbits/s dup=1 drop=0 speed=6.97x    frame= 9131 fps=167 q=29.0 size=   13248kB time=00:06:20.99 bitrate= 284.8kbits/s dup=1 drop=0 speed=6.97x    frame= 9230 fps=167 q=32.0 size=   13371kB time=00:06:25.13 bitrate= 284.4kbits/s dup=1 drop=0 speed=6.99x    frame= 9301 fps=167 q=32.0 size=   13482kB time=00:06:28.07 bitrate= 284.6kbits/s dup=1 drop=0 speed=6.98x    frame= 9388 fps=167 q=32.0 size=   13557kB time=00:06:31.74 bitrate= 283.5kbits/s dup=1 drop=0 speed=6.98x    frame= 9467 fps=167 q=32.0 size=   13670kB time=00:06:35.03 bitrate= 283.5kbits/s dup=1 drop=0 speed=6.98x    frame= 9561 fps=167 q=32.0 size=   13784kB time=00:06:38.91 bitrate= 283.1kbits/s dup=1 drop=0 speed=6.98x    frame= 9656 fps=168 q=32.0 size=   13881kB time=00:06:42.88 bitrate= 282.2kbits/s dup=1 drop=0 speed=6.99x    frame= 9755 fps=168 q=32.0 size=   13986kB time=00:06:47.01 bitrate= 281.5kbits/s dup=1 drop=0 speed=   7x    frame= 9829 fps=168 q=32.0 size=   14108kB time=00:06:50.09 bitrate= 281.8kbits/s dup=1 drop=0 speed=6.99x    frame= 9928 fps=168 q=32.0 size=   14197kB time=00:06:54.23 bitrate= 280.8kbits/s dup=1 drop=0 speed=   7x    frame=10007 fps=168 q=32.0 size=   14279kB time=00:06:57.51 bitrate= 280.2kbits/s dup=1 drop=0 speed=   7x    frame=10059 fps=167 q=32.0 size=   14377kB time=00:06:59.69 bitrate= 280.6kbits/s dup=1 drop=0 speed=6.97x    frame=10126 fps=167 q=32.0 size=   14460kB time=00:07:02.50 bitrate= 280.4kbits/s dup=1 drop=0 speed=6.96x    frame=10195 fps=167 q=32.0 size=   14546kB time=00:07:05.36 bitrate= 280.1kbits/s dup=1 drop=0 speed=6.95x    frame=10243 fps=166 q=32.0 size=   14630kB time=00:07:07.37 bitrate= 280.4kbits/s dup=1 drop=0 speed=6.93x    frame=10289 fps=165 q=32.0 size=   14726kB time=00:07:09.29 bitrate= 281.0kbits/s dup=1 drop=0 speed= 6.9x    frame=10370 fps=165 q=32.0 size=   14840kB time=00:07:12.66 bitrate= 281.0kbits/s dup=1 drop=0 speed= 6.9x    frame=10484 fps=166 q=32.0 size=   14941kB time=00:07:17.39 bitrate= 279.8kbits/s dup=1 drop=0 speed=6.92x    frame=10584 fps=166 q=32.0 size=   15051kB time=00:07:21.57 bitrate= 279.2kbits/s dup=1 drop=0 speed=6.92x    frame=10676 fps=166 q=32.0 size=   15160kB time=00:07:25.41 bitrate= 278.8kbits/s dup=1 drop=0 speed=6.93x    frame=10785 fps=166 q=32.0 size=   15254kB time=00:07:29.98 bitrate= 277.7kbits/s dup=1 drop=0 speed=6.94x    frame=10869 fps=166 q=32.0 size=   15390kB time=00:07:33.48 bitrate= 278.0kbits/s dup=1 drop=0 speed=6.94x    frame=10966 fps=167 q=32.0 size=   15474kB time=00:07:37.57 bitrate= 277.0kbits/s dup=1 drop=0 speed=6.95x    frame=11064 fps=167 q=32.0 size=   15598kB time=00:07:41.63 bitrate= 276.8kbits/s dup=1 drop=0 speed=6.96x    frame=11176 fps=167 q=32.0 size=   15700kB time=00:07:46.28 bitrate= 275.8kbits/s dup=1 drop=0 speed=6.98x    frame=11260 fps=167 q=32.0 size=   15804kB time=00:07:49.78 bitrate= 275.6kbits/s dup=1 drop=0 speed=6.98x    frame=11316 fps=167 q=32.0 size=   15881kB time=00:07:52.12 bitrate= 275.5kbits/s dup=1 drop=0 speed=6.96x    frame=11378 fps=167 q=32.0 size=   15962kB time=00:07:54.73 bitrate= 275.4kbits/s dup=1 drop=0 speed=6.95x    frame=11446 fps=166 q=32.0 size=   16115kB time=00:07:57.54 bitrate= 276.4kbits/s dup=1 drop=0 speed=6.94x    frame=11541 fps=166 q=32.0 size=   16201kB time=00:08:01.51 bitrate= 275.6kbits/s dup=1 drop=0 speed=6.94x    frame=11624 fps=166 q=32.0 size=   16309kB time=00:08:04.97 bitrate= 275.5kbits/s dup=1 drop=0 speed=6.94x    frame=11705 fps=166 q=32.0 size=   16424kB time=00:08:08.34 bitrate= 275.5kbits/s dup=1 drop=0 speed=6.94x    frame=11765 fps=166 q=32.0 size=   16546kB time=00:08:10.85 bitrate= 276.1kbits/s dup=1 drop=0 speed=6.93x    frame=11856 fps=166 q=32.0 size=   16669kB time=00:08:14.65 bitrate= 276.1kbits/s dup=1 drop=0 speed=6.93x    frame=11924 fps=166 q=32.0 size=   16777kB time=00:08:17.47 bitrate= 276.3kbits/s dup=1 drop=0 speed=6.92x    frame=12019 fps=166 q=32.0 size=   16850kB time=00:08:21.44 bitrate= 275.3kbits/s dup=1 drop=0 speed=6.93x    frame=12081 fps=166 q=32.0 size=   16963kB time=00:08:24.04 bitrate= 275.7kbits/s dup=1 drop=0 speed=6.92x    frame=12148 fps=166 q=32.0 size=   17054kB time=00:08:26.81 bitrate= 275.7kbits/s dup=1 drop=0 speed=6.91x    frame=12258 fps=166 q=32.0 size=   17149kB time=00:08:31.42 bitrate= 274.7kbits/s dup=1 drop=0 speed=6.92x    frame=12393 fps=167 q=32.0 size=   17244kB time=00:08:37.05 bitrate= 273.2kbits/s dup=1 drop=0 speed=6.95x    frame=12499 fps=167 q=32.0 size=   17331kB time=00:08:41.45 bitrate= 272.3kbits/s dup=1 drop=0 speed=6.96x    frame=12559 fps=167 q=32.0 size=   17402kB time=00:08:43.96 bitrate= 272.1kbits/s dup=1 drop=0 speed=6.95x    frame=12629 fps=166 q=32.0 size=   17475kB time=00:08:46.91 bitrate= 271.7kbits/s dup=1 drop=0 speed=6.94x    frame=12710 fps=166 q=32.0 size=   17584kB time=00:08:50.28 bitrate= 271.6kbits/s dup=1 drop=0 speed=6.94x    frame=12792 fps=166 q=32.0 size=   17676kB time=00:08:53.69 bitrate= 271.3kbits/s dup=1 drop=0 speed=6.94x    frame=12876 fps=166 q=32.0 size=   17806kB time=00:08:57.19 bitrate= 271.5kbits/s dup=1 drop=0 speed=6.94x    frame=12950 fps=166 q=32.0 size=   17907kB time=00:09:00.26 bitrate= 271.5kbits/s dup=1 drop=0 speed=6.93x    frame=12997 fps=166 q=32.0 size=   17992kB time=00:09:02.18 bitrate= 271.8kbits/s dup=1 drop=0 speed=6.91x    frame=13040 fps=165 q=32.0 size=   18073kB time=00:09:04.02 bitrate= 272.2kbits/s dup=1 drop=0 speed=6.89x    frame=13090 fps=165 q=32.0 size=   18161kB time=00:09:06.11 bitrate= 272.4kbits/s dup=1 drop=0 speed=6.88x    frame=13140 fps=164 q=32.0 size=   18251kB time=00:09:08.20 bitrate= 272.7kbits/s dup=1 drop=0 speed=6.86x    frame=13203 fps=164 q=32.0 size=   18367kB time=00:09:10.80 bitrate= 273.2kbits/s dup=1 drop=0 speed=6.85x    frame=13283 fps=164 q=32.0 size=   18486kB time=00:09:14.17 bitrate= 273.3kbits/s dup=1 drop=0 speed=6.85x    frame=13361 fps=164 q=32.0 size=   18577kB time=00:09:17.46 bitrate= 273.0kbits/s dup=1 drop=0 speed=6.85x    frame=13447 fps=164 q=32.0 size=   18658kB time=00:09:21.00 bitrate= 272.5kbits/s dup=1 drop=0 speed=6.85x    frame=13528 fps=164 q=32.0 size=   18753kB time=00:09:24.37 bitrate= 272.2kbits/s dup=1 drop=0 speed=6.85x    frame=13611 fps=164 q=32.0 size=   18839kB time=00:09:27.87 bitrate= 271.8kbits/s dup=1 drop=0 speed=6.85x    frame=13695 fps=164 q=32.0 size=   18895kB time=00:09:31.32 bitrate= 270.9kbits/s dup=1 drop=0 speed=6.85x    frame=13765 fps=164 q=32.0 size=   18978kB time=00:09:34.27 bitrate= 270.7kbits/s dup=1 drop=0 speed=6.84x    frame=13831 fps=164 q=32.0 size=   19075kB time=00:09:37.04 bitrate= 270.8kbits/s dup=1 drop=0 speed=6.83x    frame=13929 fps=164 q=32.0 size=   19149kB time=00:09:41.09 bitrate= 270.0kbits/s dup=1 drop=0 speed=6.84x    frame=13987 fps=164 q=32.0 size=   19257kB time=00:09:43.53 bitrate= 270.3kbits/s dup=1 drop=0 speed=6.83x    frame=14086 fps=164 q=32.0 size=   19352kB time=00:09:47.67 bitrate= 269.8kbits/s dup=1 drop=0 speed=6.83x    frame=14155 fps=164 q=32.0 size=   19418kB time=00:09:50.52 bitrate= 269.4kbits/s dup=1 drop=0 speed=6.83x    frame=14243 fps=164 q=32.0 size=   19500kB time=00:09:54.19 bitrate= 268.8kbits/s dup=1 drop=0 speed=6.83x    frame=14340 fps=164 q=32.0 size=   19583kB time=00:09:58.25 bitrate= 268.1kbits/s dup=1 drop=0 speed=6.84x    frame=14427 fps=164 q=32.0 size=   19666kB time=00:10:01.87 bitrate= 267.7kbits/s dup=1 drop=0 speed=6.84x    frame=14504 fps=164 q=32.0 size=   19751kB time=00:10:05.07 bitrate= 267.4kbits/s dup=1 drop=0 speed=6.84x    frame=14596 fps=164 q=32.0 size=   19845kB time=00:10:08.91 bitrate= 267.0kbits/s dup=1 drop=0 speed=6.84x    frame=14687 fps=164 q=32.0 size=   19933kB time=00:10:12.71 bitrate= 266.5kbits/s dup=1 drop=0 speed=6.84x    frame=14730 fps=164 q=32.0 size=   20068kB time=00:10:14.50 bitrate= 267.5kbits/s dup=1 drop=0 speed=6.82x    frame=14785 fps=163 q=32.0 size=   20180kB time=00:10:16.81 bitrate= 268.0kbits/s dup=1 drop=0 speed=6.81x    frame=14893 fps=163 q=32.0 size=   20323kB time=00:10:21.29 bitrate= 268.0kbits/s dup=1 drop=0 speed=6.82x    frame=14983 fps=164 q=32.0 size=   20407kB time=00:10:25.08 bitrate= 267.4kbits/s dup=1 drop=0 speed=6.82x    frame=15054 fps=163 q=32.0 size=   20516kB time=00:10:27.99 bitrate= 267.6kbits/s dup=1 drop=0 speed=6.82x    frame=15137 fps=163 q=32.0 size=   20601kB time=00:10:31.53 bitrate= 267.2kbits/s dup=1 drop=0 speed=6.82x    frame=15203 fps=163 q=32.0 size=   20726kB time=00:10:34.26 bitrate= 267.7kbits/s dup=1 drop=0 speed=6.81x    frame=15268 fps=163 q=32.0 size=   20807kB time=00:10:36.95 bitrate= 267.6kbits/s dup=1 drop=0 speed= 6.8x    frame=15340 fps=163 q=32.0 size=   20898kB time=00:10:39.97 bitrate= 267.5kbits/s dup=1 drop=0 speed= 6.8x    frame=15418 fps=163 q=32.0 size=   20979kB time=00:10:43.26 bitrate= 267.2kbits/s dup=1 drop=0 speed= 6.8x    frame=15471 fps=163 q=32.0 size=   21070kB time=00:10:45.44 bitrate= 267.4kbits/s dup=1 drop=0 speed=6.78x    frame=15527 fps=162 q=32.0 size=   21146kB time=00:10:47.74 bitrate= 267.4kbits/s dup=1 drop=0 speed=6.77x    frame=15587 fps=162 q=32.0 size=   21239kB time=00:10:50.26 bitrate= 267.6kbits/s dup=1 drop=0 speed=6.76x    frame=15703 fps=162 q=32.0 size=   21302kB time=00:10:55.08 bitrate= 266.4kbits/s dup=1 drop=0 speed=6.78x    frame=15776 fps=162 q=32.0 size=   21379kB time=00:10:58.15 bitrate= 266.1kbits/s dup=1 drop=0 speed=6.77x    frame=15858 fps=162 q=32.0 size=   21465kB time=00:11:01.56 bitrate= 265.8kbits/s dup=1 drop=0 speed=6.77x    frame=15930 fps=162 q=32.0 size=   21555kB time=00:11:04.59 bitrate= 265.7kbits/s dup=1 drop=0 speed=6.77x    frame=16036 fps=162 q=32.0 size=   21675kB time=00:11:08.99 bitrate= 265.4kbits/s dup=1 drop=0 speed=6.78x    frame=16124 fps=162 q=32.0 size=   21773kB time=00:11:12.66 bitrate= 265.2kbits/s dup=1 drop=0 speed=6.78x    frame=16183 fps=162 q=32.0 size=   21882kB time=00:11:15.13 bitrate= 265.5kbits/s dup=1 drop=0 speed=6.77x    frame=16235 fps=162 q=32.0 size=   21974kB time=00:11:17.31 bitrate= 265.8kbits/s dup=1 drop=0 speed=6.76x    frame=16331 fps=162 q=32.0 size=   22079kB time=00:11:21.28 bitrate= 265.5kbits/s dup=1 drop=0 speed=6.76x    frame=16407 fps=162 q=32.0 size=   22178kB time=00:11:24.48 bitrate= 265.4kbits/s dup=1 drop=0 speed=6.76x    frame=16489 fps=162 q=32.0 size=   22255kB time=00:11:27.89 bitrate= 265.0kbits/s dup=1 drop=0 speed=6.76x    frame=16559 fps=162 q=32.0 size=   22339kB time=00:11:30.79 bitrate= 264.9kbits/s dup=1 drop=0 speed=6.75x    frame=16615 fps=162 q=32.0 size=   22411kB time=00:11:33.18 bitrate= 264.8kbits/s dup=1 drop=0 speed=6.75x    frame=16674 fps=161 q=32.0 size=   22487kB time=00:11:35.61 bitrate= 264.8kbits/s dup=1 drop=0 speed=6.73x    frame=16736 fps=161 q=32.0 size=   22594kB time=00:11:38.17 bitrate= 265.1kbits/s dup=1 drop=0 speed=6.73x    frame=16836 fps=161 q=32.0 size=   22693kB time=00:11:42.31 bitrate= 264.7kbits/s dup=1 drop=0 speed=6.73x    frame=16925 fps=161 q=32.0 size=   22789kB time=00:11:46.07 bitrate= 264.4kbits/s dup=1 drop=0 speed=6.74x    frame=16997 fps=161 q=32.0 size=   22864kB time=00:11:49.09 bitrate= 264.1kbits/s dup=1 drop=0 speed=6.73x    frame=17071 fps=161 q=32.0 size=   22939kB time=00:11:52.17 bitrate= 263.9kbits/s dup=1 drop=0 speed=6.73x    frame=17122 fps=161 q=32.0 size=   23018kB time=00:11:54.30 bitrate= 264.0kbits/s dup=1 drop=0 speed=6.72x    frame=17187 fps=161 q=32.0 size=   23093kB time=00:11:56.99 bitrate= 263.8kbits/s dup=1 drop=0 speed=6.71x    frame=17265 fps=161 q=32.0 size=   23178kB time=00:12:00.27 bitrate= 263.6kbits/s dup=1 drop=0 speed=6.71x    frame=17349 fps=161 q=32.0 size=   23247kB time=00:12:03.77 bitrate= 263.1kbits/s dup=1 drop=0 speed=6.71x    frame=17445 fps=161 q=32.0 size=   23341kB time=00:12:07.74 bitrate= 262.7kbits/s dup=1 drop=0 speed=6.72x    frame=17539 fps=161 q=32.0 size=   23464kB time=00:12:11.67 bitrate= 262.7kbits/s dup=1 drop=0 speed=6.72x    frame=17635 fps=161 q=32.0 size=   23558kB time=00:12:15.68 bitrate= 262.3kbits/s dup=1 drop=0 speed=6.73x    frame=17716 fps=161 q=32.0 size=   23705kB time=00:12:19.05 bitrate= 262.8kbits/s dup=1 drop=0 speed=6.73x    frame=17781 fps=161 q=32.0 size=   23815kB time=00:12:21.78 bitrate= 263.0kbits/s dup=1 drop=0 speed=6.72x    frame=17868 fps=161 q=32.0 size=   23943kB time=00:12:25.40 bitrate= 263.1kbits/s dup=1 drop=0 speed=6.72x    frame=17942 fps=161 q=32.0 size=   24038kB time=00:12:28.48 bitrate= 263.1kbits/s dup=1 drop=0 speed=6.72x    frame=17994 fps=161 q=32.0 size=   24122kB time=00:12:30.65 bitrate= 263.2kbits/s dup=1 drop=0 speed=6.71x    frame=18058 fps=161 q=32.0 size=   24201kB time=00:12:33.34 bitrate= 263.2kbits/s dup=1 drop=0 speed= 6.7x    frame=18151 fps=161 q=32.0 size=   24323kB time=00:12:37.18 bitrate= 263.2kbits/s dup=1 drop=0 speed= 6.7x    frame=18242 fps=161 q=32.0 size=   24434kB time=00:12:40.98 bitrate= 263.0kbits/s dup=1 drop=0 speed=6.71x    frame=18309 fps=161 q=32.0 size=   24526kB time=00:12:43.79 bitrate= 263.1kbits/s dup=1 drop=0 speed= 6.7x    frame=18370 fps=160 q=32.0 size=   24590kB time=00:12:46.35 bitrate= 262.9kbits/s dup=1 drop=0 speed=6.69x    frame=18435 fps=160 q=32.0 size=   24674kB time=00:12:49.04 bitrate= 262.8kbits/s dup=1 drop=0 speed=6.69x    frame=18503 fps=160 q=32.0 size=   24755kB time=00:12:51.90 bitrate= 262.7kbits/s dup=1 drop=0 speed=6.68x    frame=18568 fps=160 q=32.0 size=   24838kB time=00:12:54.59 bitrate= 262.7kbits/s dup=1 drop=0 speed=6.68x    frame=18655 fps=160 q=32.0 size=   24896kB time=00:12:58.21 bitrate= 262.1kbits/s dup=1 drop=0 speed=6.68x    frame=18727 fps=160 q=32.0 size=   24948kB time=00:13:01.20 bitrate= 261.6kbits/s dup=1 drop=0 speed=6.67x    frame=18765 fps=160 q=32.0 size=   25078kB time=00:13:02.82 bitrate= 262.4kbits/s dup=1 drop=0 speed=6.66x    frame=18801 fps=159 q=32.0 size=   25172kB time=00:13:04.32 bitrate= 262.9kbits/s dup=1 drop=0 speed=6.64x    frame=18849 fps=159 q=32.0 size=   25285kB time=00:13:06.32 bitrate= 263.4kbits/s dup=1 drop=0 speed=6.63x    frame=18897 fps=159 q=32.0 size=   25360kB time=00:13:08.33 bitrate= 263.5kbits/s dup=1 drop=0 speed=6.62x    frame=18942 fps=158 q=32.0 size=   25443kB time=00:13:10.20 bitrate= 263.8kbits/s dup=1 drop=0 speed=6.61x    frame=19024 fps=158 q=32.0 size=   25551kB time=00:13:13.62 bitrate= 263.7kbits/s dup=1 drop=0 speed=6.61x    frame=19124 fps=159 q=32.0 size=   25635kB time=00:13:17.80 bitrate= 263.2kbits/s dup=1 drop=0 speed=6.62x    frame=19219 fps=159 q=32.0 size=   25744kB time=00:13:21.72 bitrate= 263.1kbits/s dup=1 drop=0 speed=6.62x    frame=19315 fps=159 q=32.0 size=   25864kB time=00:13:25.73 bitrate= 263.0kbits/s dup=1 drop=0 speed=6.62x    frame=19391 fps=159 q=32.0 size=   25974kB time=00:13:28.93 bitrate= 263.0kbits/s dup=1 drop=0 speed=6.62x    frame=19480 fps=159 q=32.0 size=   26051kB time=00:13:32.65 bitrate= 262.6kbits/s dup=1 drop=0 speed=6.63x    frame=19553 fps=159 q=32.0 size=   26158kB time=00:13:35.68 bitrate= 262.7kbits/s dup=1 drop=0 speed=6.62x    frame=19618 fps=159 q=32.0 size=   26289kB time=00:13:38.41 bitrate= 263.1kbits/s dup=1 drop=0 speed=6.62x    frame=19675 fps=158 q=32.0 size=   26396kB time=00:13:40.75 bitrate= 263.5kbits/s dup=1 drop=0 speed=6.61x    frame=19768 fps=159 q=32.0 size=   26480kB time=00:13:44.64 bitrate= 263.1kbits/s dup=1 drop=0 speed=6.62x    frame=19857 fps=159 q=32.0 size=   26597kB time=00:13:48.35 bitrate= 263.0kbits/s dup=1 drop=0 speed=6.62x    frame=19925 fps=159 q=32.0 size=   26734kB time=00:13:51.21 bitrate= 263.5kbits/s dup=1 drop=0 speed=6.61x    frame=19985 fps=158 q=32.0 size=   26830kB time=00:13:53.72 bitrate= 263.6kbits/s dup=1 drop=0 speed=6.61x    frame=20028 fps=158 q=32.0 size=   26928kB time=00:13:55.47 bitrate= 264.0kbits/s dup=1 drop=0 speed=6.59x    frame=20075 fps=158 q=32.0 size=   27014kB time=00:13:57.44 bitrate= 264.3kbits/s dup=1 drop=0 speed=6.58x    frame=20145 fps=158 q=32.0 size=   27094kB time=00:14:00.38 bitrate= 264.1kbits/s dup=1 drop=0 speed=6.58x    frame=20192 fps=157 q=32.0 size=   27193kB time=00:14:02.34 bitrate= 264.5kbits/s dup=1 drop=0 speed=6.57x    frame=20247 fps=157 q=29.0 size=   27305kB time=00:14:04.65 bitrate= 264.8kbits/s dup=1 drop=0 speed=6.56x    frame=20329 fps=157 q=32.0 size=   27460kB time=00:14:08.02 bitrate= 265.3kbits/s dup=1 drop=0 speed=6.56x    frame=20419 fps=157 q=32.0 size=   27554kB time=00:14:11.81 bitrate= 265.0kbits/s dup=1 drop=0 speed=6.56x    frame=20523 fps=158 q=32.0 size=   27658kB time=00:14:16.17 bitrate= 264.6kbits/s dup=1 drop=0 speed=6.57x    frame=20653 fps=158 q=32.0 size=   27759kB time=00:14:21.54 bitrate= 263.9kbits/s dup=1 drop=0 speed=6.59x    frame=20756 fps=158 q=32.0 size=   27823kB time=00:14:25.85 bitrate= 263.2kbits/s dup=1 drop=0 speed= 6.6x    frame=20823 fps=158 q=32.0 size=   27924kB time=00:14:28.67 bitrate= 263.3kbits/s dup=1 drop=0 speed=6.59x    frame=20886 fps=158 q=32.0 size=   28000kB time=00:14:31.27 bitrate= 263.3kbits/s dup=1 drop=0 speed=6.59x    frame=20950 fps=158 q=32.0 size=   28081kB time=00:14:33.96 bitrate= 263.2kbits/s dup=1 drop=0 speed=6.58x    frame=21039 fps=158 q=32.0 size=   28195kB time=00:14:37.67 bitrate= 263.2kbits/s dup=1 drop=0 speed=6.58x    frame=21142 fps=158 q=32.0 size=   28286kB time=00:14:41.94 bitrate= 262.7kbits/s dup=1 drop=0 speed=6.59x    frame=21214 fps=158 q=32.0 size=   28370kB time=00:14:44.92 bitrate= 262.6kbits/s dup=1 drop=0 speed=6.59x    frame=21284 fps=158 q=32.0 size=   28455kB time=00:14:47.87 bitrate= 262.5kbits/s dup=1 drop=0 speed=6.59x    frame=21385 fps=158 q=32.0 size=   28544kB time=00:14:52.09 bitrate= 262.1kbits/s dup=1 drop=0 speed=6.59x    frame=21442 fps=158 q=32.0 size=   28632kB time=00:14:54.48 bitrate= 262.2kbits/s dup=1 drop=0 speed=6.59x    frame=21508 fps=158 q=32.0 size=   28731kB time=00:14:57.21 bitrate= 262.3kbits/s dup=1 drop=0 speed=6.58x    frame=21616 fps=158 q=32.0 size=   28840kB time=00:15:01.73 bitrate= 262.0kbits/s dup=1 drop=0 speed=6.59x    frame=21733 fps=158 q=32.0 size=   28933kB time=00:15:06.60 bitrate= 261.4kbits/s dup=1 drop=0 speed= 6.6x    frame=21848 fps=159 q=32.0 size=   29004kB time=00:15:11.38 bitrate= 260.7kbits/s dup=1 drop=0 speed=6.61x    frame=21968 fps=159 q=32.0 size=   29095kB time=00:15:16.41 bitrate= 260.1kbits/s dup=1 drop=0 speed=6.63x    frame=22084 fps=159 q=32.0 size=   29180kB time=00:15:21.23 bitrate= 259.5kbits/s dup=1 drop=0 speed=6.64x    frame=22175 fps=159 q=32.0 size=   29283kB time=00:15:25.03 bitrate= 259.3kbits/s dup=1 drop=0 speed=6.64x    frame=22299 fps=159 q=32.0 size=   29367kB time=00:15:30.19 bitrate= 258.6kbits/s dup=1 drop=0 speed=6.65x    frame=22384 fps=159 q=32.0 size=   29464kB time=00:15:33.78 bitrate= 258.5kbits/s dup=1 drop=0 speed=6.65x    frame=22462 fps=159 q=32.0 size=   29557kB time=00:15:37.02 bitrate= 258.4kbits/s dup=1 drop=0 speed=6.65x    frame=22525 fps=159 q=32.0 size=   29672kB time=00:15:39.62 bitrate= 258.7kbits/s dup=1 drop=0 speed=6.65x    frame=22615 fps=159 q=32.0 size=   29754kB time=00:15:43.38 bitrate= 258.4kbits/s dup=1 drop=0 speed=6.65x    frame=22677 fps=159 q=32.0 size=   29812kB time=00:15:45.98 bitrate= 258.2kbits/s dup=1 drop=0 speed=6.65x    frame=22746 fps=159 q=32.0 size=   29899kB time=00:15:48.84 bitrate= 258.1kbits/s dup=1 drop=0 speed=6.64x    frame=22835 fps=159 q=32.0 size=   29992kB time=00:15:52.55 bitrate= 257.9kbits/s dup=1 drop=0 speed=6.64x    frame=22909 fps=159 q=32.0 size=   30078kB time=00:15:55.67 bitrate= 257.8kbits/s dup=1 drop=0 speed=6.64x    frame=22973 fps=159 q=32.0 size=   30157kB time=00:15:58.31 bitrate= 257.8kbits/s dup=1 drop=0 speed=6.63x    frame=23024 fps=159 q=32.0 size=   30235kB time=00:16:00.44 bitrate= 257.9kbits/s dup=1 drop=0 speed=6.62x    frame=23074 fps=159 q=29.0 size=   30319kB time=00:16:02.53 bitrate= 258.0kbits/s dup=1 drop=0 speed=6.62x    frame=23143 fps=159 q=32.0 size=   30421kB time=00:16:05.44 bitrate= 258.1kbits/s dup=1 drop=0 speed=6.61x    frame=23213 fps=158 q=32.0 size=   30498kB time=00:16:08.34 bitrate= 258.0kbits/s dup=1 drop=0 speed=6.61x    frame=23260 fps=158 q=32.0 size=   30564kB time=00:16:10.30 bitrate= 258.0kbits/s dup=1 drop=0 speed= 6.6x    frame=23305 fps=158 q=32.0 size=   30642kB time=00:16:12.18 bitrate= 258.2kbits/s dup=1 drop=0 speed=6.59x    frame=23369 fps=158 q=32.0 size=   30716kB time=00:16:14.82 bitrate= 258.1kbits/s dup=1 drop=0 speed=6.59x    frame=23458 fps=158 q=32.0 size=   30803kB time=00:16:18.53 bitrate= 257.9kbits/s dup=1 drop=0 speed=6.59x    frame=23558 fps=158 q=32.0 size=   30854kB time=00:16:22.72 bitrate= 257.2kbits/s dup=1 drop=0 speed=6.59x    frame=23676 fps=158 q=32.0 size=   30957kB time=00:16:27.62 bitrate= 256.8kbits/s dup=1 drop=0 speed=6.61x    frame=23765 fps=158 q=32.0 size=   31043kB time=00:16:31.38 bitrate= 256.5kbits/s dup=1 drop=0 speed=6.61x    frame=23824 fps=158 q=32.0 size=   31134kB time=00:16:33.85 bitrate= 256.6kbits/s dup=1 drop=0 speed= 6.6x    frame=23905 fps=158 q=32.0 size=   31240kB time=00:16:37.18 bitrate= 256.6kbits/s dup=1 drop=0 speed= 6.6x    frame=23982 fps=158 q=32.0 size=   31318kB time=00:16:40.42 bitrate= 256.5kbits/s dup=1 drop=0 speed= 6.6x    frame=24050 fps=158 q=32.0 size=   31413kB time=00:16:43.24 bitrate= 256.5kbits/s dup=1 drop=0 speed= 6.6x    frame=24149 fps=158 q=32.0 size=   31486kB time=00:16:47.38 bitrate= 256.0kbits/s dup=1 drop=0 speed= 6.6x    frame=24236 fps=158 q=32.0 size=   31585kB time=00:16:51.00 bitrate= 255.9kbits/s dup=1 drop=0 speed= 6.6x    frame=24320 fps=158 q=32.0 size=   31667kB time=00:16:54.50 bitrate= 255.7kbits/s dup=1 drop=0 speed=6.61x    frame=24394 fps=158 q=32.0 size=   31741kB time=00:16:57.57 bitrate= 255.5kbits/s dup=1 drop=0 speed= 6.6x    frame=24439 fps=158 q=32.0 size=   31820kB time=00:16:59.45 bitrate= 255.7kbits/s dup=1 drop=0 speed=6.59x    frame=24486 fps=158 q=32.0 size=   31898kB time=00:17:01.41 bitrate= 255.8kbits/s dup=1 drop=0 speed=6.59x    frame=24544 fps=158 q=32.0 size=   31963kB time=00:17:03.85 bitrate= 255.7kbits/s dup=1 drop=0 speed=6.58x    frame=24625 fps=158 q=32.0 size=   32062kB time=00:17:07.22 bitrate= 255.7kbits/s dup=1 drop=0 speed=6.58x    frame=24720 fps=158 q=32.0 size=   32138kB time=00:17:11.19 bitrate= 255.3kbits/s dup=1 drop=0 speed=6.58x    frame=24769 fps=158 q=32.0 size=   32226kB time=00:17:13.23 bitrate= 255.5kbits/s dup=1 drop=0 speed=6.58x    frame=24819 fps=157 q=32.0 size=   32309kB time=00:17:15.32 bitrate= 255.6kbits/s dup=1 drop=0 speed=6.57x    frame=24923 fps=158 q=32.0 size=   32408kB time=00:17:19.63 bitrate= 255.4kbits/s dup=1 drop=0 speed=6.57x    frame=25010 fps=158 q=32.0 size=   32472kB time=00:17:23.26 bitrate= 255.0kbits/s dup=1 drop=0 speed=6.57x    frame=25066 fps=157 q=32.0 size=   32598kB time=00:17:25.61 bitrate= 255.4kbits/s dup=1 drop=0 speed=6.57x    frame=25147 fps=157 q=32.0 size=   32695kB time=00:17:28.98 bitrate= 255.3kbits/s dup=1 drop=0 speed=6.57x    frame=25248 fps=158 q=32.0 size=   32777kB time=00:17:33.20 bitrate= 254.9kbits/s dup=1 drop=0 speed=6.57x    frame=25328 fps=158 q=32.0 size=   32844kB time=00:17:36.57 bitrate= 254.6kbits/s dup=1 drop=0 speed=6.57x    frame=25416 fps=158 q=32.0 size=   32924kB time=00:17:40.20 bitrate= 254.4kbits/s dup=1 drop=0 speed=6.58x    frame=25491 fps=158 q=32.0 size=   33009kB time=00:17:43.31 bitrate= 254.3kbits/s dup=1 drop=0 speed=6.57x    frame=25547 fps=157 q=32.0 size=   33088kB time=00:17:45.66 bitrate= 254.4kbits/s dup=1 drop=0 speed=6.57x    frame=25645 fps=158 q=32.0 size=   33180kB time=00:17:49.76 bitrate= 254.1kbits/s dup=1 drop=0 speed=6.57x    frame=25750 fps=158 q=32.0 size=   33278kB time=00:17:54.15 bitrate= 253.8kbits/s dup=1 drop=0 speed=6.58x    frame=25860 fps=158 q=32.0 size=   33347kB time=00:17:58.72 bitrate= 253.2kbits/s dup=1 drop=0 speed=6.59x    frame=25946 fps=158 q=32.0 size=   33424kB time=00:18:02.34 bitrate= 253.0kbits/s dup=1 drop=0 speed=6.59x    frame=26040 fps=158 q=32.0 size=   33506kB time=00:18:06.23 bitrate= 252.7kbits/s dup=1 drop=0 speed=6.59x    frame=26146 fps=158 q=32.0 size=   33600kB time=00:18:10.66 bitrate= 252.4kbits/s dup=1 drop=0 speed= 6.6x    frame=26258 fps=158 q=32.0 size=   33689kB time=00:18:15.31 bitrate= 252.0kbits/s dup=1 drop=0 speed=6.61x    frame=26374 fps=159 q=32.0 size=   33767kB time=00:18:20.18 bitrate= 251.4kbits/s dup=1 drop=0 speed=6.62x    frame=26463 fps=159 q=32.0 size=   33850kB time=00:18:23.89 bitrate= 251.2kbits/s dup=1 drop=0 speed=6.62x    frame=26547 fps=159 q=32.0 size=   33969kB time=00:18:27.39 bitrate= 251.3kbits/s dup=1 drop=0 speed=6.62x    frame=26639 fps=159 q=32.0 size=   34084kB time=00:18:31.23 bitrate= 251.3kbits/s dup=1 drop=0 speed=6.62x    frame=26748 fps=159 q=32.0 size=   34194kB time=00:18:35.79 bitrate= 251.0kbits/s dup=1 drop=0 speed=6.63x    frame=26856 fps=159 q=32.0 size=   34267kB time=00:18:40.27 bitrate= 250.6kbits/s dup=1 drop=0 speed=6.64x    frame=26916 fps=159 q=32.0 size=   34372kB time=00:18:42.79 bitrate= 250.8kbits/s dup=1 drop=0 speed=6.63x    frame=27002 fps=159 q=32.0 size=   34453kB time=00:18:46.37 bitrate= 250.6kbits/s dup=1 drop=0 speed=6.63x    frame=27054 fps=159 q=32.0 size=   34555kB time=00:18:48.51 bitrate= 250.8kbits/s dup=1 drop=0 speed=6.63x    frame=27172 fps=159 q=32.0 size=   34647kB time=00:18:53.46 bitrate= 250.4kbits/s dup=1 drop=0 speed=6.64x    frame=27285 fps=159 q=32.0 size=   34736kB time=00:18:58.15 bitrate= 250.0kbits/s dup=1 drop=0 speed=6.64x    frame=27365 fps=159 q=32.0 size=   34820kB time=00:19:01.52 bitrate= 249.9kbits/s dup=1 drop=0 speed=6.64x    frame=27434 fps=159 q=32.0 size=   34919kB time=00:19:04.38 bitrate= 250.0kbits/s dup=1 drop=0 speed=6.64x    frame=27504 fps=159 q=32.0 size=   35045kB time=00:19:07.28 bitrate= 250.2kbits/s dup=1 drop=0 speed=6.64x    frame=27585 fps=159 q=32.0 size=   35132kB time=00:19:10.69 bitrate= 250.1kbits/s dup=1 drop=0 speed=6.64x    frame=27666 fps=159 q=32.0 size=   35256kB time=00:19:14.07 bitrate= 250.3kbits/s dup=1 drop=0 speed=6.64x    frame=27767 fps=159 q=32.0 size=   35371kB time=00:19:18.25 bitrate= 250.2kbits/s dup=1 drop=0 speed=6.64x    frame=27839 fps=159 q=32.0 size=   35444kB time=00:19:21.28 bitrate= 250.0kbits/s dup=1 drop=0 speed=6.64x    frame=27911 fps=159 q=32.0 size=   35548kB time=00:19:24.26 bitrate= 250.1kbits/s dup=1 drop=0 speed=6.64x    frame=27959 fps=159 q=32.0 size=   35681kB time=00:19:26.27 bitrate= 250.6kbits/s dup=1 drop=0 speed=6.63x    frame=28031 fps=159 q=32.0 size=   35794kB time=00:19:29.25 bitrate= 250.8kbits/s dup=1 drop=0 speed=6.63x    frame=28115 fps=159 q=32.0 size=   35864kB time=00:19:32.80 bitrate= 250.5kbits/s dup=1 drop=0 speed=6.63x    frame=28202 fps=159 q=32.0 size=   35956kB time=00:19:36.42 bitrate= 250.4kbits/s dup=1 drop=0 speed=6.63x    frame=28268 fps=159 q=32.0 size=   36028kB time=00:19:39.15 bitrate= 250.3kbits/s dup=1 drop=0 speed=6.63x    frame=28324 fps=159 q=32.0 size=   36092kB time=00:19:41.50 bitrate= 250.2kbits/s dup=1 drop=0 speed=6.62x    frame=28376 fps=159 q=32.0 size=   36171kB time=00:19:43.68 bitrate= 250.3kbits/s dup=1 drop=0 speed=6.61x    frame=28438 fps=158 q=32.0 size=   36250kB time=00:19:46.28 bitrate= 250.3kbits/s dup=1 drop=0 speed=6.61x    frame=28475 fps=158 q=32.0 size=   36338kB time=00:19:47.81 bitrate= 250.6kbits/s dup=1 drop=0 speed= 6.6x    frame=28526 fps=158 q=32.0 size=   36432kB time=00:19:49.95 bitrate= 250.8kbits/s dup=1 drop=0 speed=6.59x    frame=28580 fps=158 q=32.0 size=   36515kB time=00:19:52.17 bitrate= 250.9kbits/s dup=1 drop=0 speed=6.58x    frame=28641 fps=158 q=32.0 size=   36609kB time=00:19:54.73 bitrate= 251.0kbits/s dup=1 drop=0 speed=6.58x    frame=28692 fps=158 q=32.0 size=   36675kB time=00:19:56.86 bitrate= 251.0kbits/s dup=1 drop=0 speed=6.57x    frame=28753 fps=158 q=32.0 size=   36753kB time=00:19:59.38 bitrate= 251.0kbits/s dup=1 drop=0 speed=6.57x    frame=28831 fps=157 q=32.0 size=   36835kB time=00:20:02.66 bitrate= 250.9kbits/s dup=1 drop=0 speed=6.57x    frame=28933 fps=158 q=32.0 size=   36929kB time=00:20:06.89 bitrate= 250.7kbits/s dup=1 drop=0 speed=6.57x    frame=29043 fps=158 q=32.0 size=   37018kB time=00:20:11.49 bitrate= 250.3kbits/s dup=1 drop=0 speed=6.58x    frame=29134 fps=158 q=32.0 size=   37082kB time=00:20:15.29 bitrate= 250.0kbits/s dup=1 drop=0 speed=6.58x    frame=29181 fps=158 q=32.0 size=   37177kB time=00:20:17.25 bitrate= 250.2kbits/s dup=1 drop=0 speed=6.58x    frame=29226 fps=157 q=32.0 size=   37260kB time=00:20:19.13 bitrate= 250.4kbits/s dup=1 drop=0 speed=6.57x    frame=29319 fps=158 q=32.0 size=   37340kB time=00:20:23.01 bitrate= 250.1kbits/s dup=1 drop=0 speed=6.57x    frame=29422 fps=158 q=32.0 size=   37432kB time=00:20:27.28 bitrate= 249.9kbits/s dup=1 drop=0 speed=6.58x    frame=29526 fps=158 q=32.0 size=   37510kB time=00:20:31.63 bitrate= 249.5kbits/s dup=1 drop=0 speed=6.58x    frame=29642 fps=158 q=32.0 size=   37601kB time=00:20:36.45 bitrate= 249.1kbits/s dup=1 drop=0 speed=6.59x    frame=29763 fps=158 q=32.0 size=   37674kB time=00:20:41.49 bitrate= 248.6kbits/s dup=1 drop=0 speed= 6.6x    frame=29843 fps=158 q=32.0 size=   37779kB time=00:20:44.86 bitrate= 248.6kbits/s dup=1 drop=0 speed= 6.6x    frame=29928 fps=158 q=32.0 size=   37875kB time=00:20:48.40 bitrate= 248.5kbits/s dup=1 drop=0 speed= 6.6x    frame=29992 fps=158 q=32.0 size=   37978kB time=00:20:51.05 bitrate= 248.7kbits/s dup=1 drop=0 speed= 6.6x    frame=30068 fps=158 q=32.0 size=   38093kB time=00:20:54.25 bitrate= 248.8kbits/s dup=1 drop=0 speed= 6.6x    frame=30134 fps=158 q=32.0 size=   38194kB time=00:20:56.98 bitrate= 248.9kbits/s dup=1 drop=0 speed=6.59x    frame=30170 fps=158 q=32.0 size=   38330kB time=00:20:58.51 bitrate= 249.5kbits/s dup=1 drop=0 speed=6.58x    frame=30191 fps=157 q=32.0 size=   38435kB time=00:20:59.37 bitrate= 250.0kbits/s dup=1 drop=0 speed=6.57x    frame=30222 fps=157 q=32.0 size=   38549kB time=00:21:00.65 bitrate= 250.5kbits/s dup=1 drop=0 speed=6.56x    frame=30271 fps=157 q=32.0 size=   38693kB time=00:21:02.69 bitrate= 251.0kbits/s dup=1 drop=0 speed=6.55x    frame=30317 fps=157 q=32.0 size=   38788kB time=00:21:04.61 bitrate= 251.3kbits/s dup=1 drop=0 speed=6.54x    frame=30396 fps=157 q=32.0 size=   38897kB time=00:21:07.90 bitrate= 251.3kbits/s dup=1 drop=0 speed=6.54x    frame=30503 fps=157 q=32.0 size=   38985kB time=00:21:12.38 bitrate= 251.0kbits/s dup=1 drop=0 speed=6.55x    frame=30610 fps=157 q=32.0 size=   39072kB time=00:21:16.86 bitrate= 250.7kbits/s dup=1 drop=0 speed=6.56x    frame=30701 fps=157 q=32.0 size=   39143kB time=00:21:20.61 bitrate= 250.4kbits/s dup=1 drop=0 speed=6.56x    frame=30747 fps=157 q=32.0 size=   39215kB time=00:21:22.53 bitrate= 250.5kbits/s dup=1 drop=0 speed=6.55x    frame=30819 fps=157 q=32.0 size=   39284kB time=00:21:25.56 bitrate= 250.3kbits/s dup=1 drop=0 speed=6.55x    frame=30888 fps=157 q=32.0 size=   39349kB time=00:21:28.42 bitrate= 250.2kbits/s dup=1 drop=0 speed=6.55x    frame=30965 fps=157 q=32.0 size=   39434kB time=00:21:31.67 bitrate= 250.1kbits/s dup=1 drop=0 speed=6.55x    frame=31023 fps=157 q=32.0 size=   39538kB time=00:21:34.05 bitrate= 250.3kbits/s dup=1 drop=0 speed=6.54x    frame=31064 fps=157 q=32.0 size=   39613kB time=00:21:35.76 bitrate= 250.4kbits/s dup=1 drop=0 speed=6.53x    frame=31118 fps=156 q=32.0 size=   39753kB time=00:21:38.02 bitrate= 250.9kbits/s dup=1 drop=0 speed=6.53x    frame=31157 fps=156 q=32.0 size=   39875kB time=00:21:39.69 bitrate= 251.3kbits/s dup=1 drop=0 speed=6.52x    frame=31195 fps=156 q=32.0 size=   39980kB time=00:21:41.27 bitrate= 251.7kbits/s dup=1 drop=0 speed=6.51x    frame=31232 fps=156 q=32.0 size=   40094kB time=00:21:42.80 bitrate= 252.1kbits/s dup=1 drop=0 speed= 6.5x    frame=31275 fps=156 q=32.0 size=   40207kB time=00:21:44.59 bitrate= 252.5kbits/s dup=1 drop=0 speed=6.49x    frame=31315 fps=155 q=32.0 size=   40305kB time=00:21:46.26 bitrate= 252.8kbits/s dup=1 drop=0 speed=6.49x    frame=31362 fps=155 q=32.0 size=   40444kB time=00:21:48.22 bitrate= 253.3kbits/s dup=1 drop=0 speed=6.48x    frame=31403 fps=155 q=29.0 size=   40528kB time=00:21:49.93 bitrate= 253.5kbits/s dup=1 drop=0 speed=6.47x    frame=31428 fps=155 q=32.0 size=   40646kB time=00:21:50.95 bitrate= 254.0kbits/s dup=1 drop=0 speed=6.46x    frame=31448 fps=155 q=32.0 size=   40724kB time=00:21:51.80 bitrate= 254.3kbits/s dup=1 drop=0 speed=6.45x    frame=31479 fps=154 q=32.0 size=   40830kB time=00:21:53.08 bitrate= 254.7kbits/s dup=1 drop=0 speed=6.44x    frame=31530 fps=154 q=32.0 size=   40957kB time=00:21:55.22 bitrate= 255.1kbits/s dup=1 drop=0 speed=6.43x    frame=31581 fps=154 q=32.0 size=   41066kB time=00:21:57.35 bitrate= 255.4kbits/s dup=1 drop=0 speed=6.43x    frame=31628 fps=154 q=32.0 size=   41159kB time=00:21:59.31 bitrate= 255.6kbits/s dup=1 drop=0 speed=6.42x    frame=31683 fps=154 q=32.0 size=   41310kB time=00:22:01.62 bitrate= 256.1kbits/s dup=1 drop=0 speed=6.41x    frame=31738 fps=154 q=32.0 size=   41440kB time=00:22:03.88 bitrate= 256.4kbits/s dup=1 drop=0 speed=6.41x    frame=31796 fps=153 q=32.0 size=   41552kB time=00:22:06.31 bitrate= 256.6kbits/s dup=1 drop=0 speed= 6.4x    frame=31861 fps=153 q=32.0 size=   41665kB time=00:22:09.00 bitrate= 256.8kbits/s dup=1 drop=0 speed= 6.4x    frame=31912 fps=153 q=32.0 size=   41812kB time=00:22:11.13 bitrate= 257.3kbits/s dup=1 drop=0 speed=6.39x    frame=31966 fps=153 q=32.0 size=   41922kB time=00:22:13.39 bitrate= 257.6kbits/s dup=1 drop=0 speed=6.39x    frame=32030 fps=153 q=32.0 size=   42035kB time=00:22:16.08 bitrate= 257.7kbits/s dup=1 drop=0 speed=6.39x    frame=32067 fps=153 q=32.0 size=   42155kB time=00:22:17.62 bitrate= 258.2kbits/s dup=1 drop=0 speed=6.38x    frame=32112 fps=153 q=32.0 size=   42280kB time=00:22:19.49 bitrate= 258.6kbits/s dup=1 drop=0 speed=6.37x    frame=32162 fps=153 q=32.0 size=   42401kB time=00:22:21.59 bitrate= 258.9kbits/s dup=1 drop=0 speed=6.37x    frame=32220 fps=153 q=32.0 size=   42498kB time=00:22:23.97 bitrate= 259.0kbits/s dup=1 drop=0 speed=6.36x    frame=32266 fps=152 q=32.0 size=   42665kB time=00:22:25.89 bitrate= 259.7kbits/s dup=1 drop=0 speed=6.36x    frame=32316 fps=152 q=32.0 size=   42794kB time=00:22:27.99 bitrate= 260.1kbits/s dup=1 drop=0 speed=6.35x    frame=32376 fps=152 q=32.0 size=   42898kB time=00:22:30.50 bitrate= 260.2kbits/s dup=1 drop=0 speed=6.35x    frame=32423 fps=152 q=32.0 size=   43027kB time=00:22:32.47 bitrate= 260.6kbits/s dup=1 drop=0 speed=6.34x    frame=32468 fps=152 q=32.0 size=   43142kB time=00:22:34.34 bitrate= 261.0kbits/s dup=1 drop=0 speed=6.33x    frame=32520 fps=152 q=32.0 size=   43248kB time=00:22:36.52 bitrate= 261.2kbits/s dup=1 drop=0 speed=6.33x    frame=32571 fps=152 q=32.0 size=   43360kB time=00:22:38.65 bitrate= 261.4kbits/s dup=1 drop=0 speed=6.32x    frame=32608 fps=151 q=32.0 size=   43482kB time=00:22:40.19 bitrate= 261.9kbits/s dup=1 drop=0 speed=6.31x    frame=32663 fps=151 q=32.0 size=   43624kB time=00:22:42.49 bitrate= 262.3kbits/s dup=1 drop=0 speed=6.31x    frame=32721 fps=151 q=32.0 size=   43742kB time=00:22:44.88 bitrate= 262.5kbits/s dup=1 drop=0 speed=6.31x    frame=32785 fps=151 q=32.0 size=   43840kB time=00:22:47.57 bitrate= 262.6kbits/s dup=1 drop=0 speed= 6.3x    frame=32855 fps=151 q=32.0 size=   43945kB time=00:22:50.47 bitrate= 262.7kbits/s dup=1 drop=0 speed= 6.3x    frame=32902 fps=151 q=32.0 size=   44035kB time=00:22:52.43 bitrate= 262.8kbits/s dup=1 drop=0 speed= 6.3x    frame=32953 fps=151 q=32.0 size=   44128kB time=00:22:54.57 bitrate= 263.0kbits/s dup=1 drop=0 speed=6.29x    frame=33017 fps=151 q=32.0 size=   44214kB time=00:22:57.25 bitrate= 263.0kbits/s dup=1 drop=0 speed=6.29x    frame=33116 fps=151 q=32.0 size=   44316kB time=00:23:01.35 bitrate= 262.8kbits/s dup=1 drop=0 speed=6.29x    frame=33182 fps=151 q=32.0 size=   44419kB time=00:23:04.12 bitrate= 262.9kbits/s dup=1 drop=0 speed=6.29x    frame=33232 fps=151 q=32.0 size=   44501kB time=00:23:06.21 bitrate= 263.0kbits/s dup=1 drop=0 speed=6.29x    frame=33292 fps=151 q=32.0 size=   44571kB time=00:23:08.69 bitrate= 262.9kbits/s dup=1 drop=0 speed=6.28x    frame=33370 fps=151 q=32.0 size=   44680kB time=00:23:11.97 bitrate= 262.9kbits/s dup=1 drop=0 speed=6.28x    frame=33454 fps=151 q=32.0 size=   44793kB time=00:23:15.47 bitrate= 263.0kbits/s dup=1 drop=0 speed=6.28x    frame=33525 fps=151 q=32.0 size=   44917kB time=00:23:18.42 bitrate= 263.1kbits/s dup=1 drop=0 speed=6.28x    frame=33610 fps=151 q=32.0 size=   45036kB time=00:23:21.96 bitrate= 263.2kbits/s dup=1 drop=0 speed=6.28x    frame=33697 fps=151 q=32.0 size=   45117kB time=00:23:25.59 bitrate= 262.9kbits/s dup=1 drop=0 speed=6.29x    frame=33785 fps=151 q=32.0 size=   45221kB time=00:23:29.25 bitrate= 262.9kbits/s dup=1 drop=0 speed=6.29x    frame=33860 fps=151 q=32.0 size=   45331kB time=00:23:32.41 bitrate= 262.9kbits/s dup=1 drop=0 speed=6.29x    frame=33895 fps=151 q=32.0 size=   45437kB time=00:23:33.86 bitrate= 263.3kbits/s dup=1 drop=0 speed=6.28x    frame=33954 fps=150 q=32.0 size=   45576kB time=00:23:36.34 bitrate= 263.6kbits/s dup=1 drop=0 speed=6.28x    frame=34035 fps=151 q=32.0 size=   45677kB time=00:23:39.71 bitrate= 263.6kbits/s dup=1 drop=0 speed=6.28x    frame=34091 fps=150 q=32.0 size=   45761kB time=00:23:42.05 bitrate= 263.6kbits/s dup=1 drop=0 speed=6.27x    frame=34149 fps=150 q=32.0 size=   45916kB time=00:23:44.44 bitrate= 264.1kbits/s dup=1 drop=0 speed=6.27x    frame=34213 fps=150 q=32.0 size=   46021kB time=00:23:47.13 bitrate= 264.2kbits/s dup=1 drop=0 speed=6.27x    frame=34281 fps=150 q=32.0 size=   46085kB time=00:23:49.95 bitrate= 264.0kbits/s dup=1 drop=0 speed=6.27x    frame=34331 fps=150 q=32.0 size=   46181kB time=00:23:52.04 bitrate= 264.2kbits/s dup=1 drop=0 speed=6.26x    frame=34369 fps=150 q=32.0 size=   46277kB time=00:23:53.62 bitrate= 264.4kbits/s dup=1 drop=0 speed=6.26x    frame=34425 fps=150 q=32.0 size=   46429kB time=00:23:55.96 bitrate= 264.9kbits/s dup=1 drop=0 speed=6.25x    frame=34498 fps=150 q=32.0 size=   46520kB time=00:23:58.99 bitrate= 264.8kbits/s dup=1 drop=0 speed=6.25x    frame=34575 fps=150 q=32.0 size=   46633kB time=00:24:02.24 bitrate= 264.9kbits/s dup=1 drop=0 speed=6.25x    frame=34681 fps=150 q=32.0 size=   46756kB time=00:24:06.63 bitrate= 264.8kbits/s dup=1 drop=0 speed=6.26x    frame=34804 fps=150 q=32.0 size=   46843kB time=00:24:11.79 bitrate= 264.3kbits/s dup=1 drop=0 speed=6.27x    frame=34921 fps=150 q=32.0 size=   46975kB time=00:24:16.66 bitrate= 264.2kbits/s dup=1 drop=0 speed=6.27x    frame=35116 fps=151 q=32.0 size=   47075kB time=00:24:24.76 bitrate= 263.3kbits/s dup=1 drop=0 speed=6.29x    [mp4 @ 0x2a99f20] Starting second pass: moving the moov atom to the beginning of the file
frame=35200 fps=151 q=-1.0 Lsize=   47988kB time=00:24:28.13 bitrate= 267.8kbits/s dup=1 drop=0 speed= 6.3x    
video:37800kB audio:9353kB subtitle:0kB other streams:0kB global headers:0kB muxing overhead: 1.770567%
[libx264 @ 0x2b24560] frame I:299   Avg QP:21.39  size: 15338
[libx264 @ 0x2b24560] frame P:11487 Avg QP:24.27  size:  2365
[libx264 @ 0x2b24560] frame B:23414 Avg QP:27.99  size:   297
[libx264 @ 0x2b24560] consecutive B-frames:  3.0%  9.1% 47.3% 40.6%
[libx264 @ 0x2b24560] mb I  I16..4: 31.3% 46.5% 22.1%
[libx264 @ 0x2b24560] mb P  I16..4:  4.7%  4.1%  1.0%  P16..4: 28.2%  3.9%  3.2%  0.2%  0.0%    skip:54.8%
[libx264 @ 0x2b24560] mb B  I16..4:  0.2%  0.2%  0.0%  B16..8: 11.2%  0.7%  0.1%  direct: 0.3%  skip:87.2%  L0:38.1% L1:60.0% BI: 1.9%
[libx264 @ 0x2b24560] 8x8 transform intra:42.9% inter:53.5%
[libx264 @ 0x2b24560] coded y,uvDC,uvAC intra: 24.9% 56.8% 12.5% inter: 1.5% 4.4% 0.1%
[libx264 @ 0x2b24560] i16 v,h,dc,p: 46% 27% 16% 10%
[libx264 @ 0x2b24560] i8 v,h,dc,ddl,ddr,vr,hd,vl,hu: 19% 16% 47%  3%  3%  3%  3%  3%  3%
[libx264 @ 0x2b24560] i4 v,h,dc,ddl,ddr,vr,hd,vl,hu: 31% 16% 21%  5%  5%  6%  5%  6%  4%
[libx264 @ 0x2b24560] i8c dc,h,v,p: 44% 24% 24%  8%
[libx264 @ 0x2b24560] Weighted P-Frames: Y:1.2% UV:0.9%
[libx264 @ 0x2b24560] ref P L0: 66.1%  8.2% 12.1%  3.9%  2.9%  2.5%  2.1%  1.5%  0.7%  0.0%
[libx264 @ 0x2b24560] ref B L0: 84.5%  6.9%  4.0%  1.4%  1.2%  1.0%  0.9%
[libx264 @ 0x2b24560] ref B L1: 92.5%  7.5%
[libx264 @ 0x2b24560] kb/s:210.92
